<mxfile host="app.diagrams.net" modified="2024-04-04T14:45:44.401Z" agent="Mozilla/5.0 (Windows NT 10.0; Win64; x64) AppleWebKit/537.36 (KHTML, like Gecko) Chrome/123.0.0.0 Safari/537.36" version="24.2.1" etag="oGJFzU2GI4irjSyaReH0" type="github">
  <diagram name="PÃ¡gina-1" id="m3cjVdi0gstBIf7Jt_iZ">
    <mxGraphModel>
      <root>
        <mxCell id="0" />
        <mxCell id="1" parent="0" />
      </root>
    </mxGraphModel>
  </diagram>
</mxfile>
